<?xml version="1.0" encoding="utf-8"?>
<!-- Generator: Adobe Illustrator 24.1.2, SVG Export Plug-In . SVG Version: 6.00 Build 0)  -->
<svg version="1.1" id="Layer_1" xmlns="http://www.w3.org/2000/svg" xmlns:xlink="http://www.w3.org/1999/xlink" x="0px" y="0px"
	 viewBox="0 0 595.28 541.57" style="enable-background:new 0 0 595.28 541.57;" xml:space="preserve">
<style type="text/css">
	.st0{fill:#FFFFFF;stroke:#000000;stroke-miterlimit:10;}
	.st1{opacity:0.6;}
	.st2{opacity:0.46;fill:#FBB040;stroke:#000000;stroke-width:11;stroke-miterlimit:10;}
	.st3{opacity:0.46;fill:#FBB040;stroke:#000000;stroke-width:13;stroke-miterlimit:10;}
	.st4{fill:#F7941D;stroke:#414042;stroke-width:25;stroke-miterlimit:10;}
	.st5{fill:#414042;stroke:#E6E7E8;stroke-width:25;stroke-miterlimit:10;}
	.st6{fill:#F7941D;stroke:#E6E7E8;stroke-width:20;stroke-miterlimit:10;}
	.st7{fill:#414042;}
</style>
<path class="st0" d="M-244,191.78"/>
<g class="st1">
	<g>
		<path d="M-190,754.28c3.22,0,3.22-5,0-5C-193.22,749.28-193.22,754.28-190,754.28L-190,754.28z"/>
	</g>
</g>
<g>
	<g>
		
			<ellipse transform="matrix(0.4689 -0.8832 0.8832 0.4689 -206.8036 328.9294)" class="st2" cx="170.13" cy="336.44" rx="154.49" ry="52.21"/>
		
			<ellipse transform="matrix(0.3556 -0.9346 0.9346 0.3556 -175.3418 397.0768)" class="st3" cx="200.28" cy="325.69" rx="126.93" ry="31.91"/>
		
			<ellipse transform="matrix(0.4689 -0.8832 0.8832 0.4689 -174.254 320.1346)" class="st3" cx="179.09" cy="304.97" rx="109.62" ry="23.72"/>
	</g>
	<g>
		
			<ellipse transform="matrix(0.8832 -0.4689 0.4689 0.8832 -109.1681 234.4607)" class="st2" cx="416.21" cy="336.44" rx="52.21" ry="154.49"/>
		
			<ellipse transform="matrix(0.9346 -0.3556 0.3556 0.9346 -90.5777 158.5531)" class="st3" cx="386.05" cy="325.69" rx="31.91" ry="126.93"/>
		
			<ellipse transform="matrix(0.8832 -0.4689 0.4689 0.8832 -95.4595 226.5843)" class="st3" cx="407.24" cy="304.97" rx="23.72" ry="109.62"/>
	</g>
	<polygon class="st4" points="355.61,427.18 355.61,276.77 292.02,201.56 228.43,276.77 228.43,427.18 292.02,502.39 	"/>
	<polygon class="st5" points="332.18,93.3 253.2,93.3 213.7,161.7 253.2,230.11 332.18,230.11 371.68,161.7 	"/>
	<polygon class="st6" points="296.6,38.17 360.62,94.27 296.6,112.43 232.59,94.27 	"/>
	<polygon class="st7" points="348.37,280.73 348.37,255.3 292.02,274.09 235.68,255.3 235.68,280.73 292.02,300.66 	"/>
	<polygon class="st7" points="348.37,334.02 348.37,308.59 292.02,327.37 235.68,308.59 235.68,334.02 292.02,353.94 	"/>
	<polygon class="st7" points="348.37,387.3 348.37,361.87 292.02,380.65 235.68,361.87 235.68,387.3 292.02,407.22 	"/>
	<polygon class="st7" points="348.37,440.58 348.37,415.15 292.02,433.93 235.68,415.15 235.68,440.58 292.02,460.5 	"/>
</g>
</svg>
