<?xml version="1.0" encoding="utf-8"?>
<!-- Generator: Adobe Illustrator 24.1.2, SVG Export Plug-In . SVG Version: 6.00 Build 0)  -->
<svg version="1.1" id="Layer_1" xmlns="http://www.w3.org/2000/svg" xmlns:xlink="http://www.w3.org/1999/xlink" x="0px" y="0px"
	 viewBox="0 0 127 133" style="enable-background:new 0 0 127 133;" xml:space="preserve">
<style type="text/css">
	.st0{fill:url(#SVGID_1_);stroke:#808184;stroke-width:5;stroke-miterlimit:10;}
	.st1{fill:#58595B;stroke:#808184;stroke-width:5;stroke-miterlimit:10;}
	.st2{fill:#404041;stroke:#808184;stroke-width:5;stroke-miterlimit:10;}
	.st3{fill:#404041;}
	.st4{fill:#D0D2D3;}
	.st5{fill:#BE1E2D;}
	.st6{fill:#6D6E70;}
	.st7{fill:#F6921E;}
	.st8{fill:#FFFFFF;}
	.st9{fill:none;stroke:#808184;stroke-miterlimit:10;}
	.st10{fill:#FAAF40;}
	.st11{fill:none;stroke:#F6921E;stroke-miterlimit:10;}
	.st12{fill:none;stroke:#F6921E;stroke-width:2;stroke-miterlimit:10;}
	.st13{fill:none;stroke:#26A9E0;stroke-miterlimit:10;}
	.st14{fill:none;stroke:#00ADEE;stroke-width:2;stroke-miterlimit:10;}
	.st15{fill:none;stroke:#6D6E70;stroke-width:5;stroke-miterlimit:10;}
	.st16{fill:#F6921E;stroke:#404041;stroke-width:7;stroke-miterlimit:10;}
</style>
<linearGradient id="SVGID_1_" gradientUnits="userSpaceOnUse" x1="6.3898" y1="47.3034" x2="121.5918" y2="47.3034">
	<stop  offset="0" style="stop-color:#2483C5"/>
	<stop  offset="1" style="stop-color:#2483C5;stop-opacity:0"/>
</linearGradient>
<path class="st0" d="M86.08,5.56H41.9c-5.58,0-10.83,2.64-14.16,7.13L9.86,36.8c-4.62,6.24-4.62,14.76,0,21l17.89,24.12
	c3.32,4.48,8.58,7.13,14.16,7.13h44.18c5.58,0,10.83-2.64,14.16-7.13l17.89-24.12c4.62-6.24,4.62-14.76,0-21l-17.89-24.12
	C96.91,8.2,91.66,5.56,86.08,5.56z"/>
<path class="st1" d="M115.18,126.09H11.65c-3.54,0-6.41-2.87-6.41-6.41v-12.74c0-3.54,2.87-6.41,6.41-6.41h103.52
	c3.54,0,6.41,2.87,6.41,6.41v12.74C121.59,123.22,118.72,126.09,115.18,126.09z"/>
<rect x="42.03" y="89.05" class="st2" width="42.76" height="9.69"/>
<path class="st3" d="M64.1,25.65v42.44c0,2.69,2.18,4.87,4.87,4.87h37.92l11.24-15.16c4.62-6.24,4.62-14.76,0-21l-11.88-16.02H68.96
	C66.28,20.79,64.1,22.96,64.1,25.65z"/>
<path class="st4" d="M50.33,26.83H17.26l-7.4,9.97c-4.62,6.24-4.62,14.76,0,21l16.79,22.64h23.68c3.38,0,6.13-2.74,6.13-6.13V32.96
	C56.45,29.57,53.71,26.83,50.33,26.83z"/>
<circle class="st5" cx="51.32" cy="30.03" r="1.15"/>
<path class="st6" d="M64.1,25.93v44.87c0,2.84,2.18,5.14,4.87,5.14h37.92l11.24-16.02c4.62-6.59,4.62-15.61,0-22.2l-11.88-16.93
	H68.96C66.28,20.79,64.1,23.09,64.1,25.93z"/>
<circle class="st7" cx="48.11" cy="30.03" r="1.15"/>
<path class="st8" d="M9.86,36.8c-4.62,6.24-4.62,14.76,0,21l14.18,19.11h27.28V32.31H13.19L9.86,36.8z"/>
<line class="st9" x1="48.11" y1="37.39" x2="9.96" y2="37.39"/>
<line class="st9" x1="41.26" y1="41.01" x2="41.26" y2="70.07"/>
<g>
	<ellipse class="st10" cx="23.66" cy="57.86" rx="11.74" ry="9.23"/>
	<polyline class="st10" points="28.88,49.59 32.31,44.64 32.97,52.23 	"/>
	<polyline class="st10" points="16.77,50.39 13.72,45.6 13.35,53.44 	"/>
</g>
<path class="st3" d="M67.74,72.02h42.31l7.89-11.12c4.87-6.86,4.87-16.24,0-23.1l-7.78-10.97H67.74V72.02z"/>
<line class="st9" x1="76.94" y1="32.31" x2="76.94" y2="70.07"/>
<g>
	<polyline class="st11" points="94.11,43.32 90.29,47.13 94.11,51.29 	"/>
	<line class="st12" x1="94.11" y1="46.87" x2="119.24" y2="46.87"/>
</g>
<g>
	<polyline class="st13" points="85.38,33.19 81.56,37 85.38,41.16 	"/>
	<polyline class="st13" points="93.72,33.19 97.54,37 93.72,41.16 	"/>
	<line class="st14" x1="85.29" y1="37.17" x2="93.81" y2="37.17"/>
</g>
<g>
	<polyline class="st13" points="85.38,62.74 81.56,66.55 85.38,70.71 	"/>
	<polyline class="st13" points="93.72,62.74 97.54,66.55 93.72,70.71 	"/>
	<line class="st14" x1="85.29" y1="66.72" x2="93.81" y2="66.72"/>
</g>
<g>
	<polyline class="st11" points="94.11,52.77 90.29,56.58 94.11,60.74 	"/>
	<line class="st12" x1="94.11" y1="56.32" x2="119.24" y2="56.32"/>
</g>
<path class="st15" d="M86.08,5.56H41.9c-5.58,0-10.83,2.64-14.16,7.13L9.86,36.8c-4.62,6.24-4.62,14.76,0,21l17.89,24.12
	c3.32,4.48,8.58,7.13,14.16,7.13h44.18c5.58,0,10.83-2.64,14.16-7.13l17.89-24.12c4.62-6.24,4.62-14.76,0-21l-17.89-24.12
	C96.91,8.2,91.66,5.56,86.08,5.56z"/>
<circle class="st5" cx="111.57" cy="108.15" r="2.45"/>
<circle class="st7" cx="104.75" cy="108.15" r="2.45"/>
<line class="st16" x1="15.06" y1="113.31" x2="56.45" y2="113.31"/>
</svg>
