<?xml version="1.0" encoding="utf-8"?>
<!-- Generator: Adobe Illustrator 24.1.2, SVG Export Plug-In . SVG Version: 6.00 Build 0)  -->
<svg version="1.1" id="Layer_1" xmlns="http://www.w3.org/2000/svg" xmlns:xlink="http://www.w3.org/1999/xlink" x="0px" y="0px"
	 viewBox="0 0 152 142" style="enable-background:new 0 0 152 142;" xml:space="preserve">
<style type="text/css">
	.st0{fill:#808184;}
	.st1{fill:#FFFFFF;stroke:#6D6E70;stroke-width:2;stroke-miterlimit:10;}
	.st2{fill:#F1F1F2;stroke:#929497;stroke-width:2;stroke-miterlimit:10;}
	.st3{fill:#FAAF40;stroke:#F6921E;stroke-width:3;stroke-miterlimit:10;}
	.st4{fill:#FAAF40;stroke:#F6921E;stroke-width:5;stroke-miterlimit:10;}
	.st5{fill:#00ADEE;stroke:#00ADEE;stroke-miterlimit:10;}
	.st6{fill:#929497;stroke:#929497;stroke-miterlimit:10;}
	.st7{fill:#F05A28;stroke:#F05A28;stroke-miterlimit:10;}
	.st8{fill:#652D90;stroke:#652D90;stroke-miterlimit:10;}
	.st9{fill:#00A69C;stroke:#00A69C;stroke-miterlimit:10;}
	.st10{fill:#29B473;stroke:#29B473;stroke-miterlimit:10;}
	.st11{fill:#FFF100;stroke:#FFF100;stroke-miterlimit:10;}
	.st12{fill:none;stroke:#F6921E;stroke-width:5;stroke-miterlimit:10;}
</style>
<path class="st0" d="M83.59,28.36v64.37c0.27-0.37,0.53-0.78,0.77-1.22l5.07-9.21V32.97c-0.9-1.52-1.99-2.67-3.21-3.29L83.59,28.36z
	"/>
<polyline class="st1" points="81.14,91.66 81.14,124.34 3.41,124.34 3.41,5.08 81.14,5.08 81.14,26.8 "/>
<line class="st2" x1="11.55" y1="16.9" x2="62.29" y2="16.9"/>
<polyline class="st2" points="11.55,34.75 34.31,34.75 50.4,34.75 "/>
<line class="st2" x1="11.25" y1="45.93" x2="39.45" y2="45.93"/>
<line class="st2" x1="11.25" y1="51.52" x2="38.07" y2="51.52"/>
<line class="st2" x1="11.25" y1="57.11" x2="38.95" y2="57.11"/>
<line class="st2" x1="11.25" y1="62.7" x2="40.44" y2="62.7"/>
<line class="st2" x1="11.25" y1="72.45" x2="43.63" y2="72.45"/>
<line class="st2" x1="11.25" y1="78.04" x2="45.18" y2="78.04"/>
<line class="st2" x1="11.25" y1="83.63" x2="49.59" y2="83.63"/>
<line class="st2" x1="11.25" y1="89.22" x2="73.61" y2="89.22"/>
<line class="st2" x1="11.25" y1="97.75" x2="73.61" y2="97.75"/>
<line class="st2" x1="11.25" y1="103.34" x2="73.61" y2="103.34"/>
<line class="st2" x1="11.25" y1="108.93" x2="73.61" y2="108.93"/>
<line class="st2" x1="11.25" y1="114.52" x2="73.61" y2="114.52"/>
<path class="st3" d="M129.98,123.19L99.05,92.26c-2.02-2.02-2.02-5.31,0-7.33l0.73-0.73c2.02-2.02,5.31-2.02,7.33,0l30.93,30.93
	c2.02,2.02,2.02,5.31,0,7.33l-0.73,0.73C135.29,125.22,132,125.22,129.98,123.19z"/>
<path class="st4" d="M108.14,83.9l-9.39,9.39c-2.02,2.02-5.31,2.02-7.33,0l-0.73-0.73c-2.02-2.02-2.02-5.31,0-7.33l9.39-9.39
	c2.02-2.02,5.31-2.02,7.33,0l0.73,0.73C110.16,78.59,110.16,81.88,108.14,83.9z"/>
<path class="st4" d="M146.4,122.16l-9.39,9.39c-2.02,2.02-5.31,2.02-7.33,0l-0.73-0.73c-2.02-2.02-2.02-5.31,0-7.33l9.39-9.39
	c2.02-2.02,5.31-2.02,7.33,0l0.73,0.73C148.42,116.86,148.42,120.14,146.4,122.16z"/>
<rect x="40.44" y="42.49" class="st5" width="12.04" height="4.36"/>
<rect x="55.77" y="42.49" class="st6" width="17.39" height="4.36"/>
<rect x="39.08" y="49.34" class="st6" width="6.69" height="4.36"/>
<rect x="49.7" y="49.39" class="st6" width="10.12" height="4.36"/>
<rect x="63.74" y="49.5" class="st7" width="8.12" height="4.36"/>
<rect x="40.28" y="56.1" class="st8" width="16.07" height="4.36"/>
<rect x="59.82" y="56.1" class="st9" width="13.79" height="4.36"/>
<rect x="40.79" y="63.53" class="st6" width="7.64" height="4.36"/>
<rect x="51.8" y="63.53" class="st6" width="17.37" height="4.36"/>
<rect x="46.98" y="72.5" class="st6" width="10.3" height="4.36"/>
<rect x="61.15" y="72.61" class="st10" width="9.89" height="4.36"/>
<rect x="47.81" y="80.21" class="st11" width="10.16" height="4.36"/>
<rect x="61.64" y="80.21" class="st6" width="11.15" height="4.36"/>
<path class="st12" d="M57.43,26.65L41.49,42.58c-3.11,3.11-4.31,7.65-3.13,11.89l6.22,22.44c1.14,4.13,4.37,7.36,8.5,8.5l22.44,6.22
	c4.24,1.17,8.78-0.02,11.89-3.13l15.93-15.93c3.11-3.11,4.31-7.65,3.13-11.89l-6.22-22.44c-1.14-4.13-4.37-7.36-8.5-8.5l-22.44-6.22
	C65.08,22.34,60.54,23.54,57.43,26.65z"/>
</svg>
