<?xml version="1.0" encoding="utf-8"?>
<!-- Generator: Adobe Illustrator 24.1.2, SVG Export Plug-In . SVG Version: 6.00 Build 0)  -->
<svg version="1.1" id="Layer_1" xmlns="http://www.w3.org/2000/svg" xmlns:xlink="http://www.w3.org/1999/xlink" x="0px" y="0px"
	 viewBox="0 0 186 160" style="enable-background:new 0 0 186 160;" xml:space="preserve">
<style type="text/css">
	.st0{opacity:0.43;fill:#F05A28;stroke:#F6921E;stroke-width:5;stroke-miterlimit:10;}
	.st1{opacity:0.43;fill:#FAAF40;stroke:#F1F1F2;stroke-miterlimit:10;}
	.st2{opacity:0.43;fill:#8BC53F;stroke:#F1F1F2;stroke-miterlimit:10;}
	.st3{opacity:0.43;fill:#009345;stroke:#F1F1F2;stroke-miterlimit:10;}
	.st4{fill:#D0D2D3;stroke:#929497;stroke-width:2;stroke-miterlimit:10;}
	.st5{fill:#F6921E;}
	.st6{opacity:0.56;fill:#00ADEE;stroke:#1B75BB;stroke-width:2;stroke-miterlimit:10;}
	.st7{fill:none;stroke:#6D6E70;stroke-width:5;stroke-miterlimit:10;}
</style>
<polygon class="st0" points="121.98,25.34 60.07,25.34 29.11,80.03 60.07,134.72 121.98,134.72 152.94,80.03 "/>
<polygon class="st1" points="114.39,38.76 67.66,38.76 44.3,80.03 67.66,121.3 114.39,121.3 137.75,80.03 "/>
<polygon class="st2" points="106.94,51.92 75.11,51.92 59.2,80.03 75.11,108.14 106.94,108.14 122.85,80.03 "/>
<polygon class="st3" points="100.1,64 81.95,64 72.88,80.03 81.95,96.06 100.1,96.06 109.17,80.03 "/>
<line class="st4" x1="48.07" y1="4.15" x2="133.98" y2="155.91"/>
<line class="st4" x1="133.98" y1="4.15" x2="48.07" y2="155.91"/>
<line class="st4" x1="5.11" y1="80.03" x2="176.94" y2="80.03"/>
<g>
	<g>
		<path class="st5" d="M0.97,66.24c0.98,1.43,2.12,2.73,3.28,4.01c1.03,1.13,2.06,2.3,3.4,3.08c2.6,1.52,6.69,1.11,8.29-1.69
			c1.17-2.05,0.88-5.19-0.33-7.16c-1.73-2.83-5.77-1.87-7.7,0.26C6.78,66,6.4,67.72,5.86,69.28c-0.62,1.78-1.49,3.45-2.59,4.98
			c-0.38,0.53,0.33,0.7,0.74,0.69c0.59-0.01,1.55-0.22,1.92-0.75c0.76-1.06,1.44-2.19,2-3.37c0.55-1.17,0.93-2.38,1.34-3.6
			c0.36-1.06,0.8-2.26,1.75-2.94c0.06-0.05,0.26-0.17,0.27-0.17c-0.14,0.02,0.04,0.03,0.07,0.04c0.47,0.12,0.85,0.45,1.15,0.82
			c1.21,1.46,1.49,4.06,1.04,5.85c-0.16,0.63-0.55,1.75-1.26,1.95c-0.73,0.2-1.97-0.51-2.57-0.94c-1.17-0.84-2.12-1.96-3.08-3.02
			c-1.05-1.17-2.08-2.36-2.97-3.66C3.21,64.49,0.4,65.41,0.97,66.24L0.97,66.24z"/>
	</g>
</g>
<g>
	<g>
		<path class="st5" d="M138.39,8.24c0.06,0,0.51,0.06,0.26,0.01c0.12,0.03,0.23,0.06,0.34,0.1c0.13,0.05,0.15,0.05,0.06,0.02
			c0.07,0.03,0.14,0.07,0.21,0.11c0.1,0.06,0.21,0.12,0.3,0.19c0.33,0.24,0.7,0.68,0.9,1.09c0.54,1.11,0.41,2.48-0.12,3.57
			c-0.27,0.55-0.48,0.87-0.94,1.25c0.19-0.16-0.12,0.07-0.13,0.08c-0.14,0.08-0.14,0.08,0.01,0c-0.07,0.03-0.14,0.07-0.22,0.1
			c0.17-0.06,0.21-0.07,0.1-0.04c-0.11,0.03-0.08,0.02,0.1-0.01c-0.16,0.01-0.16,0.02,0.01,0.01c-0.15-0.01-0.14-0.01,0.02,0.02
			c-0.03-0.01-0.32-0.11-0.12-0.02c-0.13-0.06-0.25-0.13-0.36-0.22c0.12,0.09-0.11-0.11-0.11-0.12c-0.09-0.1-0.18-0.21-0.25-0.33
			c0.06,0.11-0.06-0.16-0.06-0.15c-0.04-0.11-0.07-0.22-0.08-0.34c-0.01-0.12,0.02-0.25,0.12-0.41c0.36-0.59-0.31-1-0.83-1.03
			c-0.68-0.03-1.53,0.22-1.9,0.84c-0.67,1.11-0.13,2.37,0.85,3.07c1.31,0.95,3.14,0.57,4.44-0.19c2.38-1.38,3.53-4.83,2.17-7.27
			c-0.73-1.32-2.19-2.15-3.69-2.18c-0.67-0.02-1.55,0.2-1.9,0.84C137.23,7.81,137.84,8.23,138.39,8.24L138.39,8.24z"/>
	</g>
</g>
<g>
	<g>
		<path class="st5" d="M148.16,7.59c-0.34-0.82-1.32-0.83-2.08-0.68c-0.88,0.17-1.59,0.62-2.2,1.26c-1.07,1.1-1.93,2.37-2.54,3.78
			c-0.3,0.7-0.67,1.51-0.46,2.28c0.2,0.74,0.9,1.15,1.55,1.44c1.46,0.64,3.06,0.98,4.65,1.01c1.95,0.04,3.9-0.35,5.69-1.13
			c0.4-0.17,1.19-0.72,0.76-1.22c-0.42-0.49-1.43-0.28-1.93-0.06c-1.07,0.47-2.16,0.71-3.42,0.69c-1.31-0.02-2.65-0.3-3.82-0.9
			c-0.63-0.32-0.72-0.79-0.52-1.44c0.19-0.63,0.49-1.24,0.82-1.81c0.34-0.59,0.73-1.17,1.18-1.69c0.19-0.22,0.41-0.41,0.6-0.63
			c0.24-0.28-0.1,0,0.13-0.11c-0.27,0.13-1.14,0.44-1.32,0.01c0.25,0.59,1.15,0.54,1.66,0.39C147.28,8.64,148.41,8.18,148.16,7.59
			L148.16,7.59z"/>
	</g>
</g>
<g>
	<g>
		<path class="st5" d="M131.74,139.82c0.04,0.26,0.07,0.51,0.11,0.77c0.07,0.5,0.92,0.55,1.28,0.51c0.57-0.06,1.21-0.32,1.53-0.82
			c1.67-2.52,3.56-4.87,5.68-7.03c-0.88,0.03-1.75,0.05-2.63,0.08c0.15,4.38-0.32,8.76-1.33,13.02c-0.28,1.2,2.65,0.78,2.91-0.31
			c1.05-4.43,1.47-8.94,1.31-13.49c-0.01-0.44-0.83-0.52-1.09-0.51c-0.54,0.02-1.15,0.2-1.54,0.59c-2.25,2.29-4.27,4.8-6.04,7.48
			c0.94-0.1,1.87-0.21,2.81-0.31c-0.04-0.26-0.07-0.51-0.11-0.77C134.48,137.94,131.57,138.62,131.74,139.82L131.74,139.82z"/>
	</g>
</g>
<g>
	<g>
		<path class="st5" d="M141.01,140.13c0.43-0.45,0.91-0.86,1.44-1.19c0.54-0.34,1.14-0.6,1.61-0.74c0.41-0.11,0.86-0.29,1.35,0
			c0.54,0.31,0.76,0.96,0.81,1.55c0.11,1.44-1.11,2.77-1.99,3.77c-0.95,1.08-2.04,2.04-3.23,2.86c-0.29,0.2-0.59,0.39-0.91,0.55
			c-0.16,0.08-0.4,0.17-0.58,0.22c-0.17,0.05,0,0.01,0.03,0c-0.05,0.02-0.22,0.03-0.07,0.02c-0.15,0.01-0.13,0.03-0.31-0.02
			c-0.28-0.07-0.49-0.22-0.7-0.42c-0.66-0.63-3.37,0.44-2.7,1.08c1.51,1.44,4.06,0.77,5.72-0.01c1.82-0.86,3.44-2.23,4.83-3.67
			c1.27-1.32,2.86-3.06,2.82-5.01c-0.02-0.84-0.43-1.65-1.15-2.09c-0.96-0.59-2.22-0.51-3.28-0.31c-2.42,0.47-4.65,1.64-6.35,3.44
			c-0.48,0.5,0.41,0.72,0.75,0.72C139.77,140.88,140.53,140.64,141.01,140.13L141.01,140.13z"/>
	</g>
</g>
<polygon class="st6" points="67.14,79.94 76.64,105.44 94.73,85.61 144.67,80.03 103.12,58.67 67.66,38.76 "/>
<g>
	<g>
		<path class="st5" d="M54.4,5.79c1.45-0.32,2.91-0.53,4.39-0.66c0.73-0.06,1.46-0.11,2.19-0.12c0.38-0.01,0.76-0.01,1.14,0
			c0.19,0,0.38,0.01,0.57,0.01c0.13-0.01,0.15,0,0.05,0.02c0.06,0.45-0.93,1.08-1.2,1.33c-0.56,0.51-1.12,1.03-1.69,1.54
			c-1.12,1.03-2.25,2.05-3.37,3.08c-0.65,0.59-0.05,1.13,0.63,1.16c4.06,0.2,8.12-0.27,12.02-1.41c0.47-0.14,1.39-0.54,1.24-1.18
			c-0.15-0.62-1.24-0.53-1.66-0.4c-3.42,0.99-6.94,1.41-10.5,1.23c0.21,0.39,0.42,0.78,0.63,1.16c1.44-1.31,2.88-2.63,4.32-3.94
			c0.79-0.72,3.4-2.49,2.24-3.81c-0.56-0.64-1.69-0.55-2.45-0.56C61.95,3.24,60.97,3.27,60,3.33c-2.03,0.13-4.04,0.44-6.03,0.88
			c-0.48,0.1-1.39,0.56-1.24,1.18C52.89,6.03,53.97,5.88,54.4,5.79L54.4,5.79z"/>
	</g>
</g>
<g>
	<g>
		<path class="st5" d="M39.39,139.02c-0.05,0.96-0.06,1.92-0.02,2.88c0.04,0.86-0.01,1.89,0.34,2.69c0.77,1.76,3.1,1.5,4.54,0.88
			c2.86-1.23,4.9-4.31,4.71-7.44c-0.09-1.43-2.39-1.11-2.85-0.06c-0.88,1.99-0.41,4.04,0.05,6.07c0.44,1.93,0.64,3.77-0.24,5.61
			c-0.67,1.41-2.02,2.98-3.66,3.22c-0.69,0.1-1.24-0.24-1.5-0.88c-0.2-0.49-0.27-1.4,0.17-1.79c1.46-1.31-0.83-2.31-1.92-1.33
			c-0.86,0.77-1.38,1.73-1.32,2.91c0.06,1.07,0.57,2.13,1.53,2.68c2.51,1.46,5.71-0.04,7.59-1.85c1.7-1.64,2.78-4.02,2.7-6.4
			c-0.09-2.54-1.71-5.44-0.62-7.91c-0.95-0.02-1.9-0.04-2.85-0.06c0.12,1.98-0.68,4.06-2.4,5.16c-0.2,0.13-0.66,0.46-0.92,0.4
			c-0.11-0.02,0.12,0.14-0.08-0.04c-0.22-0.18-0.21-0.68-0.24-0.94c-0.14-1.34-0.13-2.7-0.06-4.04
			C42.41,137.29,39.46,137.7,39.39,139.02L39.39,139.02z"/>
	</g>
</g>
<g>
	<g>
		<path class="st5" d="M167.04,76.23c1.89,0.07,3.78,0.1,5.66,0.08c0.55,0,1.15-0.16,1.59-0.48c0.21-0.15,0.67-0.58,0.33-0.85
			c-0.71-0.57-1.35-1.2-1.91-1.91c-0.46-0.59-1.24-1.52-1.04-2.33c0.13-0.51,0.65-0.68,1.07-0.82c0.89-0.31,1.86-0.63,2.81-0.62
			c1.43,0.02,3.08,1.22,2.9,2.79c-0.17,1.51-1.72,2.51-2.04,4c-0.07,0.34,0.26,0.53,0.55,0.56c1.65,0.19,3.3,0.25,4.95,0.16
			c0.62-0.04,1.56-0.19,1.92-0.77c0.33-0.55-0.28-0.82-0.77-0.79c-1.44,0.09-2.88,0.06-4.31-0.1c0.18,0.19,0.37,0.37,0.55,0.56
			c0.41-1.9,2.74-3.2,1.9-5.38c-0.87-2.27-3.56-2.77-5.7-2.52c-1.36,0.16-2.73,0.57-4.01,1.05c-0.92,0.35-1.95,0.86-2.48,1.73
			c-0.58,0.97-0.13,1.93,0.43,2.79c0.67,1.04,1.51,1.94,2.48,2.72c0.64-0.45,1.28-0.89,1.92-1.34c-1.89,0.01-3.78-0.01-5.66-0.08
			c-0.6-0.02-1.58,0.22-1.92,0.77C165.92,76.02,166.58,76.22,167.04,76.23L167.04,76.23z"/>
	</g>
</g>
<polygon class="st7" points="121.98,25.34 60.07,25.34 29.11,80.03 60.07,134.72 121.98,134.72 152.94,80.03 "/>
</svg>
